<svg width="45" height="42" viewBox="0 0 45 42" fill="none" xmlns="http://www.w3.org/2000/svg">
<path d="M40.6055 3.60938H36.416V2.46094C36.416 1.10398 35.2332 0 33.7793 0C32.3254 0 31.1425 1.10398 31.1425 2.46094V3.60938H16.3769V2.46094C16.3769 1.10398 15.1941 0 13.7402 0C12.2863 0 11.1035 1.10398 11.1035 2.46094V3.63973C11.0288 3.62045 10.9505 3.60938 10.8692 3.60938H7.36726C4.94411 3.60938 2.97272 5.44934 2.97272 7.71094V21.6836C2.97272 22.1366 3.3663 22.5039 3.85163 22.5039C4.33696 22.5039 4.73054 22.1366 4.73054 21.6836V12.0586H36.416C36.9013 12.0586 37.2949 11.6913 37.2949 11.2383C37.2949 10.7852 36.9013 10.418 36.416 10.418H4.73054V7.71094C4.73054 6.35398 5.91337 5.25 7.36726 5.25H10.8692C10.9505 5.25 11.0288 5.23884 11.1035 5.21965V6.27539C11.1035 7.63235 12.2863 8.73633 13.7402 8.73633C15.1941 8.73633 16.3769 7.63235 16.3769 6.27539V5.25H31.1425V6.27539C31.1425 7.63235 32.3254 8.73633 33.7793 8.73633C35.2332 8.73633 36.416 7.63235 36.416 6.27539V5.25H40.6055C42.0594 5.25 43.2422 6.35398 43.2422 7.71094V38.8823C43.2422 39.6967 42.5323 40.3594 41.6596 40.3594C40.787 40.3594 40.0771 39.6967 40.0771 38.8823V36.7603C40.0771 36.3072 39.6835 35.9399 39.1982 35.9399H28.9746C28.4893 35.9399 28.0957 36.3072 28.0957 36.7603C28.0957 37.2133 28.4893 37.5806 28.9746 37.5806H38.3193V38.8823C38.3193 39.4164 38.4641 39.9194 38.7187 40.3594H3.33984C2.46753 40.3594 1.75781 39.697 1.75781 38.8828V37.5806H21.4299C21.9153 37.5806 22.3088 37.2133 22.3088 36.7603C22.3088 36.3072 21.9153 35.9399 21.4299 35.9399H12.6483C14.1841 34.7055 15.1593 32.8794 15.1593 30.8438C15.1593 27.1347 11.9262 24.1172 7.95226 24.1172C3.97828 24.1172 0.745225 27.1347 0.745225 30.8438C0.745225 32.8794 1.72046 34.7055 3.25626 35.9399H0.878906C0.393574 35.9399 0 36.3072 0 36.7603V38.8828C0 40.6016 1.49827 42 3.33984 42H41.6596C43.5015 42 45 40.6014 45 38.8823V7.71094C45 5.44934 43.0286 3.60938 40.6055 3.60938ZM14.6191 6.27539C14.6191 6.72771 14.2248 7.0957 13.7402 7.0957C13.2556 7.0957 12.8613 6.72771 12.8613 6.27539V2.46094C12.8613 2.00862 13.2556 1.64062 13.7402 1.64062C14.2248 1.64062 14.6191 2.00862 14.6191 2.46094V6.27539ZM34.6582 6.27539C34.6582 6.72771 34.2639 7.0957 33.7793 7.0957C33.2946 7.0957 32.9004 6.72771 32.9004 6.27539V2.46094C32.9004 2.00862 33.2946 1.64062 33.7793 1.64062C34.2639 1.64062 34.6582 2.00862 34.6582 2.46094V6.27539ZM2.50304 30.8438C2.50304 28.0393 4.94754 25.7578 7.95226 25.7578C10.957 25.7578 13.4015 28.0393 13.4015 30.8438C13.4015 33.6482 10.957 35.9297 7.95226 35.9297C4.94754 35.9297 2.50304 33.6482 2.50304 30.8438Z" fill="white"/>
<path d="M41.16 10.6583C40.9966 10.5057 40.7698 10.418 40.5387 10.418C40.3074 10.418 40.0808 10.5057 39.9173 10.6583C39.7538 10.8109 39.6598 11.0225 39.6598 11.2383C39.6598 11.454 39.7537 11.6657 39.9173 11.8182C40.0808 11.9708 40.3074 12.0586 40.5387 12.0586C40.7698 12.0586 40.9966 11.9708 41.16 11.8182C41.3234 11.6657 41.4176 11.454 41.4176 11.2383C41.4176 11.0225 41.3235 10.8109 41.16 10.6583Z" fill="white"/>
<path d="M26.2484 36.1799C26.085 36.0273 25.8583 35.9404 25.6271 35.9404C25.396 35.9404 25.1692 36.0273 25.0058 36.1799C24.8423 36.3333 24.7482 36.5441 24.7482 36.7599C24.7482 36.9764 24.8422 37.1872 25.0058 37.3406C25.1692 37.4932 25.396 37.5802 25.6271 37.5802C25.8583 37.5802 26.085 37.4932 26.2484 37.3406C26.4119 37.1872 26.506 36.9756 26.506 36.7599C26.506 36.5441 26.412 36.3333 26.2484 36.1799Z" fill="white"/>
<path d="M19.8848 24.9375C18.0433 24.9375 16.545 26.3359 16.545 28.0547C16.545 29.7735 18.0433 31.1719 19.8848 31.1719C21.7264 31.1719 23.2247 29.7735 23.2247 28.0547C23.2247 26.3359 21.7264 24.9375 19.8848 24.9375ZM19.8848 29.5313C19.0125 29.5313 18.3028 28.8688 18.3028 28.0547C18.3028 27.2405 19.0125 26.5781 19.8848 26.5781C20.7571 26.5781 21.4669 27.2405 21.4669 28.0547C21.4669 28.8688 20.7571 29.5313 19.8848 29.5313Z" fill="white"/>
<path d="M28.0879 24.9375C26.2463 24.9375 24.7481 26.3359 24.7481 28.0547C24.7481 29.7735 26.2463 31.1719 28.0879 31.1719C29.9295 31.1719 31.4278 29.7735 31.4278 28.0547C31.4278 26.3359 29.9295 24.9375 28.0879 24.9375ZM28.0879 29.5313C27.2156 29.5313 26.5059 28.8688 26.5059 28.0547C26.5059 27.2405 27.2156 26.5781 28.0879 26.5781C28.9602 26.5781 29.67 27.2405 29.67 28.0547C29.67 28.8688 28.9602 29.5313 28.0879 29.5313Z" fill="white"/>
<path d="M36.2911 24.9375C34.4495 24.9375 32.9512 26.3359 32.9512 28.0547C32.9512 29.7735 34.4495 31.1719 36.2911 31.1719C38.1326 31.1719 39.6309 29.7735 39.6309 28.0547C39.6309 26.3359 38.1326 24.9375 36.2911 24.9375ZM36.2911 29.5313C35.4188 29.5313 34.709 28.8688 34.709 28.0547C34.709 27.2405 35.4188 26.5781 36.2911 26.5781C37.1634 26.5781 37.8731 27.2405 37.8731 28.0547C37.8731 28.8688 37.1634 29.5313 36.2911 29.5313Z" fill="white"/>
<path d="M11.6817 16.4062C9.84016 16.4062 8.34189 17.8046 8.34189 19.5234C8.34189 21.2422 9.84016 22.6406 11.6817 22.6406C13.5233 22.6406 15.0216 21.2422 15.0216 19.5234C15.0216 17.8046 13.5233 16.4062 11.6817 16.4062ZM11.6817 21C10.8094 21 10.0997 20.3376 10.0997 19.5234C10.0997 18.7093 10.8094 18.0469 11.6817 18.0469C12.554 18.0469 13.2638 18.7093 13.2638 19.5234C13.2638 20.3376 12.554 21 11.6817 21Z" fill="white"/>
<path d="M28.0879 16.4062C26.2463 16.4062 24.7481 17.8046 24.7481 19.5234C24.7481 21.2422 26.2463 22.6406 28.0879 22.6406C29.9295 22.6406 31.4278 21.2422 31.4278 19.5234C31.4278 17.8046 29.9295 16.4062 28.0879 16.4062ZM28.0879 21C27.2156 21 26.5059 20.3376 26.5059 19.5234C26.5059 18.7093 27.2156 18.0469 28.0879 18.0469C28.9602 18.0469 29.67 18.7093 29.67 19.5234C29.67 20.3376 28.9602 21 28.0879 21Z" fill="white"/>
<path d="M36.2911 16.4062C34.4495 16.4062 32.9512 17.8046 32.9512 19.5234C32.9512 21.2422 34.4495 22.6406 36.2911 22.6406C38.1326 22.6406 39.6309 21.2422 39.6309 19.5234C39.6309 17.8046 38.1326 16.4062 36.2911 16.4062ZM36.2911 21C35.4188 21 34.709 20.3376 34.709 19.5234C34.709 18.7093 35.4188 18.0469 36.2911 18.0469C37.1634 18.0469 37.8731 18.7093 37.8731 19.5234C37.8731 20.3376 37.1634 21 36.2911 21Z" fill="white"/>
<path d="M19.8848 16.4062C18.0433 16.4062 16.545 17.8046 16.545 19.5234C16.545 21.2422 18.0433 22.6406 19.8848 22.6406C21.7264 22.6406 23.2247 21.2422 23.2247 19.5234C23.2247 17.8046 21.7264 16.4062 19.8848 16.4062ZM19.8848 21C19.0125 21 18.3028 20.3376 18.3028 19.5234C18.3028 18.7093 19.0125 18.0469 19.8848 18.0469C20.7571 18.0469 21.4669 18.7093 21.4669 19.5234C21.4669 20.3376 20.7571 21 19.8848 21Z" fill="white"/>
<path d="M11.0834 28.8446C10.7401 28.5243 10.1837 28.5243 9.84033 28.8446L6.97809 31.5161L5.99996 30.6032C5.65666 30.2829 5.10031 30.2829 4.75692 30.6032C4.41371 30.9235 4.41371 31.443 4.75692 31.7634L6.35662 33.2563C6.5215 33.4101 6.745 33.4965 6.97809 33.4965C7.21118 33.4965 7.43468 33.4101 7.59957 33.2563L11.0834 30.0047C11.4266 29.6844 11.4266 29.165 11.0834 28.8446Z" fill="white"/>
</svg>
