<svg width="45" height="45" viewBox="0 0 45 45" fill="none" xmlns="http://www.w3.org/2000/svg">
<path d="M9.4978 26.3438C8.82421 26.3438 8.2785 26.8903 8.2785 27.564C8.2785 28.2376 8.82421 28.7843 9.4978 28.7843C10.1724 28.7843 10.7181 28.2377 10.7181 27.564C10.7181 26.8903 10.1724 26.3438 9.4978 26.3438Z" fill="white"/>
<path d="M41.9484 16.9913L33.3745 13.5552C31.9472 12.9827 30.4436 12.6929 28.9049 12.6929H23.6494C21.7666 12.6929 19.8838 13.1438 18.2052 13.9978L10.4365 17.9484L4.86351 18.7609C3.51264 18.9579 2.2776 19.6352 1.3841 20.6686C0.491396 21.7012 0 23.0218 0 24.3865V27.6754C0 28.1834 0.412295 28.5956 0.920215 28.5956H4.86809C5.06593 29.4911 5.51962 30.31 6.18952 30.9634C7.08029 31.8294 8.25548 32.307 9.49869 32.307C10.741 32.307 11.9162 31.8294 12.807 30.9634C13.4778 30.3092 13.9324 29.4883 14.1294 28.5956H30.6229C30.8208 29.4911 31.2745 30.31 31.9453 30.9625C32.8352 31.8294 34.0103 32.307 35.2527 32.307C36.4959 32.307 37.6711 31.8294 38.561 30.9634C39.2318 30.31 39.6855 29.491 39.8834 28.5956H44.0797C44.5877 28.5956 44.9999 28.1833 44.9999 27.6754V21.5024C45 19.5055 43.8019 17.735 41.9484 16.9913ZM32.6899 15.2631L39.3083 17.9162H34.3141L32.1156 15.0534C32.308 15.1178 32.4994 15.1877 32.6899 15.2631ZM24.5126 14.5334H28.9049C29.0725 14.5334 29.239 14.5371 29.4046 14.5453L31.9932 17.9162H24.5126V14.5334ZM19.039 15.6386C20.1699 15.0635 21.4095 14.7046 22.6721 14.5822V17.9162H14.5601L19.039 15.6386ZM4.98683 20.607C4.60863 21.887 3.4795 22.8478 2.11201 22.9785C2.59137 21.7758 3.6653 20.8509 4.98683 20.607ZM9.49781 30.4666C7.89477 30.4666 6.5954 29.1672 6.5954 27.5642C6.5954 25.9611 7.89477 24.6617 9.49781 24.6617C11.1008 24.6617 12.4002 25.9611 12.4002 27.5642C12.4003 29.1672 11.1009 30.4666 9.49781 30.4666ZM35.2537 30.4666C33.6507 30.4666 32.3503 29.1672 32.3503 27.5642C32.3503 25.9611 33.6507 24.6617 35.2537 24.6617C36.8568 24.6617 38.1561 25.9611 38.1561 27.5642C38.1561 29.1672 36.8568 30.4666 35.2537 30.4666ZM43.1595 26.7552H39.9257C39.5401 24.5245 37.5929 22.8211 35.2528 22.8211C32.9135 22.8211 30.9662 24.5245 30.5807 26.7552H14.1717C13.7862 24.5245 11.838 22.8211 9.49878 22.8211C7.1586 22.8211 5.21139 24.5245 4.82581 26.7552H1.84052V24.8337C4.44762 24.8098 6.59909 22.8478 6.92024 20.3208L10.7899 19.7567H33.8605C33.8605 19.7567 33.8605 19.7567 33.8614 19.7567C33.8614 19.7567 33.8614 19.7567 33.8622 19.7567H39.6855V20.9549C39.6855 22.6389 41.0557 24.0091 42.7389 24.0091H43.1595V26.7552ZM43.1595 22.1687H42.7389C42.0708 22.1687 41.526 21.624 41.526 20.9549V19.7568H42.6055C42.9579 20.2556 43.1595 20.8592 43.1595 21.5025V22.1687Z" fill="white"/>
<path d="M35.2537 26.3438C34.5792 26.3438 34.0334 26.8903 34.0334 27.564C34.0334 28.2376 34.5792 28.7843 35.2537 28.7843C35.9273 28.7843 36.473 28.2377 36.473 27.564C36.473 26.8903 35.9273 26.3438 35.2537 26.3438Z" fill="white"/>
<path d="M25.5058 22.3359H19.4021C18.8938 22.3359 18.4819 22.748 18.4819 23.2562C18.4819 23.7643 18.8939 24.1764 19.4021 24.1764H25.5058C26.014 24.1764 26.426 23.7643 26.426 23.2562C26.426 22.748 26.014 22.3359 25.5058 22.3359Z" fill="white"/>
<path d="M9.4978 26.3442C8.82421 26.3442 8.2785 26.8908 8.2785 27.5645C8.2785 28.2381 8.82421 28.7848 9.4978 28.7848C10.1724 28.7848 10.7181 28.2382 10.7181 27.5645C10.7181 26.8908 10.1724 26.3442 9.4978 26.3442Z" fill="white"/>
<path d="M35.2537 26.3442C34.5792 26.3442 34.0334 26.8908 34.0334 27.5645C34.0334 28.2381 34.5792 28.7848 35.2537 28.7848C35.9273 28.7848 36.473 28.2382 36.473 27.5645C36.473 26.8908 35.9273 26.3442 35.2537 26.3442Z" fill="white"/>
<path d="M9.4978 26.3442C8.82421 26.3442 8.2785 26.8908 8.2785 27.5645C8.2785 28.2381 8.82421 28.7848 9.4978 28.7848C10.1724 28.7848 10.7181 28.2382 10.7181 27.5645C10.7181 26.8908 10.1724 26.3442 9.4978 26.3442Z" fill="white"/>
<path d="M35.2537 26.3442C34.5792 26.3442 34.0334 26.8908 34.0334 27.5645C34.0334 28.2381 34.5792 28.7848 35.2537 28.7848C35.9273 28.7848 36.473 28.2382 36.473 27.5645C36.473 26.8908 35.9273 26.3442 35.2537 26.3442Z" fill="white"/>
</svg>
