<svg width="50" height="50" viewBox="0 0 50 50" fill="none" xmlns="http://www.w3.org/2000/svg">
<path d="M46.6667 2.5H8.33333C6.4924 2.5 5 3.9924 5 5.83333V32.5H0.833333C0.373125 32.5 0 32.8731 0 33.3333C0 35.1743 1.4924 36.6667 3.33333 36.6667H27.5V46.6667C27.5001 47.1269 27.8732 47.4999 28.3335 47.4998C28.5545 47.4998 28.7663 47.412 28.9225 47.2558L33.3333 42.845L37.7442 47.2558C37.9004 47.4121 38.1123 47.5 38.3333 47.5C38.4429 47.5003 38.5514 47.4789 38.6525 47.4367C38.9639 47.3076 39.1668 47.0036 39.1667 46.6667V36.6667H41.6667C43.5076 36.6667 45 35.1743 45 33.3333V6.66667H49.1667C49.6269 6.66667 50 6.29354 50 5.83333C50 3.9924 48.5076 2.5 46.6667 2.5ZM43.3333 5.83333V32.5H40V34.1667H43.1092C42.8116 34.6821 42.2618 34.9997 41.6667 35H39.1667V34.1667H37.5V44.655L33.9225 41.0775C33.5971 40.7522 33.0696 40.7522 32.7442 41.0775L29.1667 44.655V34.1667H27.5V35H3.33333C2.73823 34.9997 2.18844 34.6821 1.89083 34.1667H5.83333H26.6667V32.5H6.66667V5.83333C6.66667 4.91281 7.41281 4.16667 8.33333 4.16667H43.7967C43.4968 4.67115 43.3368 5.24646 43.3333 5.83333ZM45.2242 5C45.6852 4.20333 46.7048 3.93125 47.5016 4.3924C47.7537 4.53833 47.9632 4.74792 48.1092 5H45.2242Z" fill="white"/>
<path d="M41.1892 28.5792L40.1217 26.6667L41.1933 24.7558C41.4192 24.3548 41.2772 23.8467 40.8763 23.6208C40.8561 23.6095 40.8353 23.5989 40.8142 23.5892L38.825 22.6783L38.5683 20.5033C38.5141 20.0464 38.0995 19.7199 37.6425 19.7742C37.6213 19.7767 37.6001 19.78 37.5792 19.7842L35.4308 20.21L33.945 18.6008C33.6124 18.263 33.069 18.2588 32.7312 18.5914C32.7279 18.5945 32.7248 18.5977 32.7217 18.6008L31.2358 20.21L29.0875 19.7842C28.6361 19.6949 28.1976 19.9885 28.1083 20.44C28.1042 20.4609 28.1008 20.4821 28.0983 20.5033L27.8417 22.6783L25.8525 23.5908C25.4341 23.7824 25.2501 24.277 25.4417 24.6954C25.4514 24.7166 25.4619 24.7373 25.4733 24.7575L26.545 26.6667L25.4733 28.5775C25.2475 28.9785 25.3895 29.4867 25.7904 29.7125C25.8106 29.7239 25.8314 29.7345 25.8525 29.7442L27.8417 30.6567L28.0983 32.8333C28.1526 33.2903 28.5672 33.6168 29.0242 33.5625C29.0454 33.56 29.0666 33.5567 29.0875 33.5525L31.2358 33.1267L32.7217 34.7358C33.0343 35.0736 33.5615 35.0941 33.8993 34.7816C33.9151 34.7669 33.9303 34.7517 33.945 34.7358L35.4308 33.1267L37.5792 33.5525C37.8069 33.5991 38.0437 33.547 38.2308 33.4092C38.4171 33.2719 38.5378 33.0632 38.5642 32.8333L38.8208 30.6583L40.81 29.7458C41.2285 29.5543 41.4124 29.0597 41.2208 28.6413C41.2112 28.6201 41.2005 28.5994 41.1892 28.5792ZM38.44 27.0733L39.2975 28.6033L37.7042 29.3342C37.44 29.4554 37.2581 29.7055 37.2242 29.9942L37.0192 31.7383L35.2967 31.3975C35.0128 31.3385 34.719 31.4335 34.5233 31.6475L33.3333 32.9375L32.1433 31.6492C31.9856 31.4786 31.764 31.3817 31.5317 31.3817C31.4773 31.3814 31.4231 31.387 31.37 31.3983L29.6475 31.7392L29.4425 29.995C29.4086 29.7064 29.2267 29.4563 28.9625 29.335L27.3692 28.6042L28.2267 27.0742C28.37 26.82 28.3735 26.5114 28.2267 26.2592V26.2625L27.3692 24.7325L28.9625 24.0017C29.2267 23.8804 29.4086 23.6303 29.4425 23.3417L29.6475 21.5975L31.37 21.9383C31.6538 21.9966 31.9473 21.9017 32.1433 21.6883L33.3333 20.3958L34.5233 21.6842C34.7189 21.8982 35.0128 21.9932 35.2967 21.9342L37.0192 21.5933L37.2242 23.3375C37.2581 23.6261 37.44 23.8763 37.7042 23.9975L39.2975 24.7283L38.44 26.2583C38.2981 26.5115 38.2981 26.8202 38.44 27.0733Z" fill="white"/>
<path d="M33.3333 22.5C31.0322 22.5 29.1667 24.3655 29.1667 26.6667C29.1694 28.9667 31.0333 30.8305 33.3333 30.8333C35.6345 30.8333 37.5 28.9678 37.5 26.6667C37.5 24.3655 35.6345 22.5 33.3333 22.5ZM33.3333 29.1667C31.9526 29.1667 30.8333 28.0474 30.8333 26.6667C30.8333 25.2859 31.9526 24.1667 33.3333 24.1667C34.7141 24.1667 35.8333 25.2859 35.8333 26.6667C35.8333 28.0474 34.7141 29.1667 33.3333 29.1667Z" fill="white"/>
<path d="M31.6667 7.5H18.3333V9.16667H31.6667V7.5Z" fill="white"/>
<path d="M40 12.5H10V14.1667H40V12.5Z" fill="white"/>
<path d="M40 15.8334H10V17.5H40V15.8334Z" fill="white"/>
<path d="M21.6667 26.6666H10.8333V28.3333H21.6667V26.6666Z" fill="white"/>
</svg>
