<svg width="50" height="50" viewBox="0 0 50 50" fill="none" xmlns="http://www.w3.org/2000/svg">
<path d="M39.7184 0H15.4701C12.4633 0 10.0384 2.42483 9.98995 5.43162C7.08015 5.57711 4.80081 8.00194 4.80081 10.9117V44.5199C4.80081 47.5267 7.27414 50 10.2809 50H34.5292C37.536 50 39.9608 47.5752 40.0093 44.5684C42.9191 44.4229 45.1985 41.9981 45.1985 39.0883V5.52861C45.247 2.47333 42.7737 0 39.7184 0ZM38.215 44.5199C38.215 46.5567 36.5661 48.2056 34.5292 48.2056H10.2809C8.24407 48.2056 6.64368 46.5567 6.64368 44.5684V10.9117C6.64368 8.87488 8.29257 7.27449 10.2809 7.27449H29.8736V15.7129C29.8736 16.1979 30.2615 16.6343 30.795 16.6343H38.215V44.5199ZM31.7164 14.7915V8.72939L37.0996 14.7915H31.7164ZM40.0578 42.774V15.7129C40.0578 15.6159 40.0093 15.4704 40.0093 15.3734C40.0093 15.3249 39.9608 15.2764 39.9608 15.2764C39.9123 15.2279 39.9124 15.1794 39.8639 15.1309L31.4739 5.7226C31.4254 5.6741 31.3285 5.62561 31.2315 5.57711C31.183 5.57711 31.183 5.52861 31.1345 5.52861C31.0375 5.48012 30.892 5.43162 30.7465 5.43162H11.8328C11.8813 3.44326 13.4817 1.84287 15.4701 1.84287H39.7184C41.7552 1.84287 43.3556 3.49176 43.3556 5.48012V39.1368H43.4041C43.4041 41.0281 41.9007 42.6285 40.0578 42.774Z" fill="black"/>
<path d="M11.3964 16.6343H19.4953C19.9803 16.6343 20.4167 16.2464 20.4167 15.7129C20.4167 15.2279 20.0288 14.7915 19.4953 14.7915H11.3964C10.9114 14.7915 10.4749 15.1794 10.4749 15.7129C10.4749 16.2464 10.8629 16.6343 11.3964 16.6343Z" fill="black"/>
<path d="M19.4468 38.8942H11.3964C10.9114 38.8942 10.4749 39.2822 10.4749 39.8157C10.4749 40.3006 10.8629 40.7371 11.3964 40.7371H19.4953C19.9803 40.7371 20.4167 40.3491 20.4167 39.8157C20.3682 39.3307 19.9803 38.8942 19.4468 38.8942Z" fill="black"/>
<path d="M10.4749 21.8236C10.4749 22.3085 10.8629 22.745 11.3964 22.745H33.0259C33.5108 22.745 33.9473 22.357 33.9473 21.8236C33.9473 21.3386 33.5108 20.9021 33.0259 20.9021H11.3964C10.9114 20.9021 10.4749 21.2901 10.4749 21.8236Z" fill="black"/>
<path d="M33.0259 25.4121H11.3964C10.9114 25.4121 10.4749 25.8001 10.4749 26.3336C10.4749 26.8185 10.8629 27.255 11.3964 27.255H33.0259C33.5108 27.255 33.9473 26.867 33.9473 26.3336C33.9473 25.8486 33.5108 25.4121 33.0259 25.4121Z" fill="black"/>
<path d="M33.0259 29.9709H11.3964C10.9114 29.9709 10.4749 30.3589 10.4749 30.8924C10.4749 31.3773 10.8629 31.8138 11.3964 31.8138H33.0259C33.5108 31.8138 33.9473 31.4258 33.9473 30.8924C33.9473 30.3589 33.5108 29.9709 33.0259 29.9709Z" fill="black"/>
<path d="M33.0259 34.4812H11.3964C10.9114 34.4812 10.4749 34.8691 10.4749 35.4026C10.4749 35.8876 10.8629 36.324 11.3964 36.324H33.0259C33.5108 36.324 33.9473 35.9361 33.9473 35.4026C33.9473 34.8691 33.5108 34.4812 33.0259 34.4812Z" fill="black"/>
</svg>
