<svg width="40" height="40" viewBox="0 0 40 40" fill="none" xmlns="http://www.w3.org/2000/svg">
<path d="M34.1421 5.85789C30.3647 2.08039 25.3422 0 20 0C14.6578 0 9.63531 2.08039 5.85789 5.85789C2.08031 9.63531 0 14.6578 0 20C0 25.3422 2.08031 30.3647 5.85789 34.1421C9.63531 37.9196 14.6578 40 20 40C25.3422 40 30.3647 37.9196 34.1421 34.1421C37.9197 30.3647 40 25.3422 40 20C40 14.6578 37.9197 9.63531 34.1421 5.85789ZM20 37.6191C10.2848 37.6191 2.38094 29.7152 2.38094 20C2.38094 10.2848 10.2848 2.38094 20 2.38094C29.7152 2.38094 37.6191 10.2848 37.6191 20C37.6191 29.7152 29.7152 37.6191 20 37.6191Z" fill="white"/>
<path d="M15.6736 14.7185C13.7241 12.7689 10.552 12.769 8.60258 14.7185C8.13766 15.1833 8.13766 15.9372 8.60258 16.4021C9.06758 16.8669 9.82141 16.8669 10.2863 16.4021C11.3075 15.3809 12.9691 15.381 13.9902 16.4021C14.2227 16.6346 14.5273 16.7508 14.8319 16.7508C15.1365 16.7508 15.4413 16.6346 15.6736 16.4021C16.1385 15.9372 16.1385 15.1834 15.6736 14.7185Z" fill="white"/>
<path d="M31.3972 14.7185C29.4477 12.769 26.2756 12.7689 24.3262 14.7185C23.8612 15.1833 23.8612 15.9372 24.3262 16.4021C24.7912 16.8669 25.545 16.8669 26.0098 16.4021C27.0309 15.3809 28.6925 15.3808 29.7138 16.4021C29.9463 16.6346 30.2509 16.7508 30.5555 16.7508C30.8601 16.7508 31.1649 16.6346 31.3972 16.4021C31.8621 15.9372 31.8621 15.1834 31.3972 14.7185Z" fill="white"/>
<path d="M30.5555 20.873H9.44445C8.78695 20.873 8.25398 21.4061 8.25398 22.0635C8.25398 28.5402 13.5233 33.8095 20 33.8095C26.4767 33.8095 31.746 28.5402 31.746 22.0635C31.746 21.406 31.213 20.873 30.5555 20.873ZM20 31.4286C15.2392 31.4286 11.2967 27.858 10.7102 23.254H29.2898C28.7033 27.858 24.7608 31.4286 20 31.4286Z" fill="white"/>
</svg>
