<svg width="40" height="40" viewBox="0 0 40 40" fill="none" xmlns="http://www.w3.org/2000/svg">
<g clip-path="url(#clip0)">
<path d="M27.7449 21.1555C27.351 20.7616 26.8273 20.5446 26.2703 20.5446C26.1352 20.5446 26.0022 20.558 25.8724 20.5829L16.6976 11.4082L18.4755 9.63036C18.7603 9.34554 18.7603 8.88383 18.4755 8.59901L18.0256 8.14908L24.7753 1.39935C24.9775 1.19718 25.0428 0.89554 24.9425 0.627737C24.8422 0.360031 24.5947 0.175564 24.3094 0.156018C20.4363 -0.10916 16.64 1.28353 13.8574 3.98082L13.4054 3.52884C13.2687 3.39212 13.0832 3.3152 12.8897 3.3152C12.6963 3.3152 12.5108 3.39202 12.3741 3.52884L5.13104 10.7719C4.84622 11.0567 4.84622 11.5184 5.13104 11.8032L5.82875 12.5009L4.55042 13.7793L3.85271 13.0816C3.56789 12.7967 3.10609 12.7967 2.82136 13.0816L0.21364 15.6893C0.0768208 15.8261 0 16.0116 0 16.205C0 16.3985 0.0768208 16.584 0.21364 16.7207L5.28381 21.7908C5.42617 21.9333 5.61288 22.0044 5.79948 22.0044C5.98609 22.0044 6.17279 21.9333 6.31515 21.7908L8.92278 19.1832C9.0596 19.0464 9.13642 18.8609 9.13642 18.6675C9.13642 18.4741 9.0596 18.2885 8.92278 18.1518L8.22478 17.4538L9.50312 16.1755L10.2011 16.8735C10.3378 17.0102 10.5234 17.0871 10.7168 17.0871C10.9102 17.0871 11.0957 17.0103 11.2325 16.8735L13.0103 15.0956L22.1856 24.2709C22.059 24.9282 22.2496 25.635 22.7575 26.1429L33.6385 37.0238C34.0324 37.4177 34.5561 37.6346 35.1131 37.6346C35.6702 37.6346 36.194 37.4177 36.5879 37.0238L38.6259 34.9858C39.4389 34.1727 39.4389 32.8496 38.6259 32.0364L27.7449 21.1555ZM22.4977 1.61406L16.9941 7.11773L14.8885 5.01197C16.9601 3.01132 19.6568 1.81807 22.4977 1.61406ZM5.79948 20.2437L1.76075 16.205L3.33704 14.6287L7.37577 18.6674L5.79948 20.2437ZM7.19344 16.4224L5.58186 14.8108L6.86019 13.5325L8.47178 15.144L7.19344 16.4224ZM10.7168 15.3264L6.67806 11.2876L12.8897 5.07605L16.9284 9.11478L10.7168 15.3264ZM15.6663 12.4397L24.5889 21.3622L22.9644 22.9867L14.0418 14.0642L15.6663 12.4397ZM37.5943 33.9543L35.5564 35.9923C35.4379 36.1108 35.2806 36.1759 35.113 36.1759C34.9456 36.1759 34.7881 36.1107 34.6697 35.9923L23.7891 25.1115C23.5448 24.8672 23.5447 24.4698 23.7886 24.2253L25.8275 22.1864C25.9459 22.0683 26.103 22.0033 26.2703 22.0033C26.4377 22.0033 26.5952 22.0685 26.7136 22.1869L37.5944 33.0676C37.8388 33.3122 37.8388 33.71 37.5943 33.9543Z" fill="white"/>
<path d="M24.1644 16.5515C23.8796 16.8363 23.8796 17.2981 24.1644 17.5829C24.4493 17.8678 24.911 17.8678 25.1959 17.5829L26.7537 16.0251C28.6023 14.1765 29.5002 11.6626 29.2173 9.12817C29.0477 7.60955 29.6334 6.0989 30.7841 5.0872C31.1144 4.79684 31.4835 4.55665 31.8802 4.37208L31.2809 6.29319C31.0327 7.08863 31.1091 7.93307 31.4962 8.67104C31.8831 9.409 32.5345 9.952 33.3298 10.2002C34.9717 10.7125 36.7244 9.7932 37.2369 8.15118L37.8559 6.16648C38.2894 6.87197 38.5273 7.68277 38.5407 8.53373C38.5608 9.81061 38.0747 11.0111 37.172 11.9138C36.6417 12.4441 36.0135 12.8286 35.3049 13.0567C33.9848 13.4817 32.7822 14.211 31.8272 15.166L28.0162 18.977C27.7314 19.2618 27.7314 19.7235 28.0162 20.0083C28.1587 20.1508 28.3454 20.222 28.532 20.222C28.7186 20.222 28.9053 20.1508 29.0478 20.0083L32.8588 16.1973C33.6508 15.4053 34.6511 14.7994 35.7518 14.4451C36.6699 14.1496 37.5176 13.6309 38.2035 12.9452C39.388 11.7607 40.0257 10.1858 39.9992 8.51059C39.9729 6.83541 39.2842 5.28013 38.0604 4.13102C37.8772 3.9591 37.6184 3.89346 37.3756 3.95745C37.1327 4.02133 36.9398 4.2058 36.8649 4.4456L35.8445 7.71671C35.5717 8.59091 34.6383 9.08033 33.7643 8.80766C33.3408 8.67551 32.994 8.38641 32.7881 7.99356C32.582 7.6006 32.5413 7.15105 32.6734 6.72757L33.6822 3.49389C33.7574 3.25254 33.7024 2.98941 33.5366 2.79852C33.3709 2.60754 33.1175 2.51623 32.8687 2.55688C31.7318 2.74212 30.678 3.23834 29.821 3.99167C28.3128 5.31766 27.5453 7.29838 27.7676 9.28998C28.0012 11.3814 27.2556 13.4602 25.7222 14.9937L24.1644 16.5515Z" fill="white"/>
<path d="M20.5953 26.3982C18.7467 28.2468 17.8488 30.7606 18.1317 33.2952C18.3013 34.8137 17.7156 36.3243 16.5648 37.3361C16.2346 37.6265 15.8653 37.8667 15.4688 38.0513L16.0681 36.1302C16.3162 35.3347 16.2398 34.4903 15.8528 33.7523C15.4658 33.0143 14.8145 32.4713 14.0191 32.2232C13.2236 31.975 12.3791 32.0515 11.6413 32.4385C10.9033 32.8255 10.3603 33.4767 10.1121 34.2721L9.49301 36.2568C9.05941 35.5512 8.82165 34.7406 8.80823 33.8894C8.7881 32.6125 9.27421 31.4121 10.177 30.5093C10.7073 29.979 11.3354 29.5946 12.0441 29.3665C13.3642 28.9417 14.5667 28.2123 15.5217 27.2573L19.3937 23.3851C19.6786 23.1003 19.6786 22.6385 19.3937 22.3538C19.1089 22.0689 18.6471 22.0689 18.3624 22.3538L14.4903 26.2259C13.6983 27.0179 12.6979 27.6239 11.5973 27.9781C10.6793 28.2736 9.83141 28.7923 9.14576 29.4781C7.96126 30.6626 7.32355 32.2374 7.3499 33.9126C7.37625 35.5877 8.06492 37.1431 9.2888 38.2922C9.47191 38.4641 9.73086 38.5298 9.97358 38.4658C10.2165 38.4019 10.4094 38.2174 10.4842 37.9776L11.5046 34.7065C11.6367 34.2831 11.9259 33.9364 12.3187 33.7303C12.7116 33.5243 13.1612 33.4835 13.5848 33.6157C14.0083 33.7478 14.3551 34.0369 14.5611 34.4298C14.7672 34.8226 14.8079 35.2723 14.6758 35.6958L13.667 38.9294C13.5917 39.1708 13.6468 39.4339 13.8125 39.6248C13.9522 39.7858 14.1538 39.876 14.3632 39.876C14.4021 39.876 14.4413 39.8729 14.4805 39.8665C15.6173 39.6812 16.6712 39.185 17.5281 38.4317C19.0363 37.1056 19.8039 35.125 19.5815 33.1335C19.348 31.0421 20.0936 28.9632 21.6269 27.4298C21.9117 27.1449 21.9117 26.6832 21.6269 26.3984C21.3419 26.1134 20.8802 26.1134 20.5953 26.3982Z" fill="white"/>
</g>
<defs>
<clipPath id="clip0">
<rect width="40" height="40" fill="white"/>
</clipPath>
</defs>
</svg>
