<svg width="50" height="50" viewBox="0 0 50 50" fill="none" xmlns="http://www.w3.org/2000/svg">
<path d="M43.8774 34.1169C45.2444 31.2871 45.9677 28.1597 45.9677 25C45.9677 21.8403 45.2444 18.7129 43.8774 15.8831C47.3871 15.0097 50 11.8403 50 8.06452C50 3.61774 46.3823 0 41.9355 0C38.154 0 34.9806 2.62016 34.1137 6.1371C33.4855 5.83387 32.8427 5.55887 32.1806 5.31774C31.7266 2.3129 29.1339 0 26.0048 0H23.9952C20.8661 0 18.2734 2.3129 17.8202 5.31774C17.1581 5.55887 16.5153 5.83468 15.8871 6.1371C15.0194 2.62016 11.846 0 8.06452 0C3.61774 0 0 3.61774 0 8.06452C0 11.8403 2.6129 15.0097 6.12258 15.8831C4.75565 18.7129 4.03226 21.8403 4.03226 25C4.03226 28.1597 4.75565 31.2871 6.12258 34.1169C2.6129 34.9903 0 38.1597 0 41.9355C0 46.3823 3.61774 50 8.06452 50C11.8419 50 15.0121 47.3855 15.8839 43.8734C16.225 44.0371 16.5774 44.1911 16.9355 44.3403V50H33.0645V44.3403C33.4226 44.1911 33.775 44.0379 34.1161 43.8734C34.9879 47.3855 38.1581 50 41.9355 50C46.3823 50 50 46.3823 50 41.9355C50 38.1597 47.3871 34.9903 43.8774 34.1169ZM41.9355 1.6129C45.4927 1.6129 48.3871 4.50726 48.3871 8.06452C48.3871 11.6218 45.4927 14.5161 41.9355 14.5161C38.3782 14.5161 35.4839 11.6218 35.4839 8.06452C35.4839 4.50726 38.3782 1.6129 41.9355 1.6129ZM19.3548 6.25323C19.3548 3.69436 21.4363 1.6129 23.9952 1.6129H26.0048C28.5637 1.6129 30.6452 3.69436 30.6452 6.25323V6.56532C30.2073 6.19597 29.8137 5.76694 29.4823 5.26935C28.9661 4.49435 28.1032 4.03226 27.1718 4.03226H22.8274C21.8968 4.03226 21.0331 4.49435 20.4903 5.31048C20.175 5.78387 19.7879 6.20323 19.3548 6.56694V6.25323ZM19.3548 8.525C20.3411 7.94355 21.2 7.15403 21.8613 6.1621C22.0766 5.83871 22.4379 5.64516 22.8282 5.64516H27.1726C27.5621 5.64516 27.9242 5.83871 28.1677 6.20484C28.804 7.15887 29.6597 7.94436 30.6452 8.525V8.87097C30.6452 11.9831 28.1121 14.5161 25 14.5161C21.8879 14.5161 19.3548 11.9831 19.3548 8.87097V8.525ZM27.6976 16.129C27.0863 16.6839 26.0331 17.2823 25 17.6871C23.9669 17.2831 22.9129 16.6839 22.3024 16.129H27.6976ZM1.6129 8.06452C1.6129 4.50726 4.50726 1.6129 8.06452 1.6129C11.6218 1.6129 14.5161 4.50726 14.5161 8.06452C14.5161 11.6218 11.6218 14.5161 8.06452 14.5161C4.50726 14.5161 1.6129 11.6218 1.6129 8.06452ZM8.06452 48.3871C4.50726 48.3871 1.6129 45.4927 1.6129 41.9355C1.6129 38.3782 4.50726 35.4839 8.06452 35.4839C11.6218 35.4839 14.5161 38.3782 14.5161 41.9355C14.5161 45.4927 11.6218 48.3871 8.06452 48.3871ZM16.9355 42.5887C16.6532 42.4605 16.3847 42.3234 16.1161 42.1847C16.1185 42.1016 16.129 42.0194 16.129 41.9355C16.129 37.4887 12.5113 33.871 8.06452 33.871C7.97984 33.871 7.89758 33.8815 7.8129 33.8839C6.39919 31.1508 5.64516 28.0927 5.64516 25C5.64516 21.9073 6.39919 18.8492 7.8129 16.1161C7.89758 16.1185 7.97984 16.129 8.06452 16.129C12.5113 16.129 16.129 12.5113 16.129 8.06452C16.129 7.98226 16.1194 7.90242 16.1169 7.82016C16.6435 7.54758 17.1855 7.30081 17.7419 7.07581V8.87097C17.7419 11.15 18.8 13.1847 20.4476 14.5161H19.3548C15.3524 14.5161 12.0968 17.7718 12.0968 21.7742V29.8387C12.0968 32.5073 14.2669 34.6774 16.9355 34.6774V42.5887ZM16.9355 33.0645C15.1565 33.0645 13.7097 31.6177 13.7097 29.8387V23.3871H16.9355V33.0645ZM24.1935 48.3871H18.5484V46.7742H24.1935V48.3871ZM31.4516 48.3871H25.8065V46.7742H31.4516V48.3871ZM31.4516 45.1613H25.8065V36.2903H24.1935V45.1613H18.5484V37.0153C20.3863 36.6403 21.7742 35.0121 21.7742 33.0645H28.2258C28.2258 35.0113 29.6137 36.6403 31.4516 37.0153V45.1613ZM18.5484 35.3355V33.0645H20.1613C20.1613 34.1145 19.4847 35.0016 18.5484 35.3355ZM31.4516 35.3355C30.5153 35.0016 29.8387 34.1145 29.8387 33.0645H31.4516V35.3355ZM31.4516 20.1613V31.4516H18.5484V20.1613H16.9355V21.7742H13.7097C13.7097 18.6621 16.2427 16.129 19.3548 16.129H20.3282C21.0702 17.9105 24.0605 19.0685 24.7282 19.3073L25 19.4056L25.2718 19.3081C25.9387 19.0694 28.9298 17.9113 29.6718 16.1298H30.6452C33.7573 16.1298 36.2903 18.6629 36.2903 21.775H33.0645V21.7742V20.1613H31.4516ZM36.2903 23.3871V29.8387C36.2903 31.6177 34.8435 33.0645 33.0645 33.0645V23.3871H36.2903ZM33.8839 42.1847C33.6153 42.3234 33.3468 42.4605 33.0645 42.5887V34.6774C35.7331 34.6774 37.9032 32.5073 37.9032 29.8387V21.7742C37.9032 17.7718 34.6476 14.5161 30.6452 14.5161H29.5524C31.2 13.1847 32.2581 11.15 32.2581 8.87097V7.07581C32.8145 7.30081 33.3565 7.54839 33.8831 7.82016C33.8806 7.90242 33.871 7.98226 33.871 8.06452C33.871 12.5113 37.4887 16.129 41.9355 16.129C42.0202 16.129 42.1024 16.1185 42.1871 16.1161C43.6008 18.8492 44.3548 21.9073 44.3548 25C44.3548 28.0927 43.6008 31.1508 42.1871 33.8839C42.1024 33.8815 42.0202 33.871 41.9355 33.871C37.4887 33.871 33.871 37.4887 33.871 41.9355C33.871 42.0194 33.8815 42.1016 33.8839 42.1847ZM41.9355 48.3871C38.3782 48.3871 35.4839 45.4927 35.4839 41.9355C35.4839 38.3782 38.3782 35.4839 41.9355 35.4839C45.4927 35.4839 48.3871 38.3782 48.3871 41.9355C48.3871 45.4927 45.4927 48.3871 41.9355 48.3871Z" fill="black"/>
<path d="M12.0968 4.03226H4.03229V5.64516H12.0968V4.03226Z" fill="black"/>
<path d="M12.0968 7.25806H4.03229V8.87096H12.0968V7.25806Z" fill="black"/>
<path d="M12.0968 10.4839H10.4839V12.0968H12.0968V10.4839Z" fill="black"/>
<path d="M8.871 10.4839H4.03229V12.0968H8.871V10.4839Z" fill="black"/>
<path d="M45.9677 4.03226H37.9032V5.64516H45.9677V4.03226Z" fill="black"/>
<path d="M45.9677 7.25806H37.9032V8.87096H45.9677V7.25806Z" fill="black"/>
<path d="M45.9678 10.4839H44.3549V12.0968H45.9678V10.4839Z" fill="black"/>
<path d="M42.7419 10.4839H37.9032V12.0968H42.7419V10.4839Z" fill="black"/>
<path d="M12.0968 37.9032H4.03229V39.5161H12.0968V37.9032Z" fill="black"/>
<path d="M12.0968 41.129H4.03229V42.7419H12.0968V41.129Z" fill="black"/>
<path d="M12.0968 44.3548H10.4839V45.9677H12.0968V44.3548Z" fill="black"/>
<path d="M8.871 44.3548H4.03229V45.9677H8.871V44.3548Z" fill="black"/>
<path d="M45.9677 37.9032H37.9032V39.5161H45.9677V37.9032Z" fill="black"/>
<path d="M45.9677 41.129H37.9032V42.7419H45.9677V41.129Z" fill="black"/>
<path d="M45.9678 44.3548H44.3549V45.9677H45.9678V44.3548Z" fill="black"/>
<path d="M42.7419 44.3548H37.9032V45.9677H42.7419V44.3548Z" fill="black"/>
</svg>
