<svg width="40" height="40" viewBox="0 0 40 40" fill="none" xmlns="http://www.w3.org/2000/svg">
<g clip-path="url(#clip0)">
<path d="M31.6586 24.7789C30.8385 23.9262 29.8493 23.4703 28.8009 23.4703C27.761 23.4703 26.7634 23.9177 25.9095 24.7704L23.2378 27.4297C23.018 27.3115 22.7982 27.2018 22.5868 27.092C22.2825 26.9401 21.995 26.7966 21.7498 26.6446C19.2473 25.0575 16.973 22.9891 14.7917 20.3129C13.7349 18.979 13.0247 17.8562 12.509 16.7165C13.2023 16.0833 13.8448 15.4248 14.4705 14.7916C14.7072 14.5553 14.9439 14.3104 15.1806 14.0741C16.9561 12.3012 16.9561 10.0049 15.1806 8.232L12.8725 5.92726C12.6104 5.66555 12.3399 5.3954 12.0863 5.12524C11.579 4.60182 11.0464 4.06152 10.4968 3.55498C9.67671 2.74452 8.69598 2.31396 7.66453 2.31396C6.63307 2.31396 5.63543 2.74452 4.78998 3.55498C4.78152 3.56342 4.78152 3.56342 4.77307 3.57186L1.89851 6.46756C0.816331 7.54818 0.199148 8.86517 0.0638749 10.3932C-0.139035 12.8584 0.588058 15.1547 1.14606 16.6574C2.5157 20.3467 4.5617 23.7658 7.6138 27.4297C11.3169 31.845 15.7725 35.3317 20.8621 37.7884C22.8066 38.7086 25.4022 39.7977 28.3021 39.9834C28.4797 39.9918 28.6657 40.0003 28.8348 40.0003C30.7878 40.0003 32.4279 39.2996 33.713 37.9066C33.7215 37.8897 33.7384 37.8813 33.7469 37.8644C34.1865 37.3325 34.6938 36.8513 35.2264 36.3363C35.5899 35.9902 35.9619 35.6272 36.3255 35.2473C37.1625 34.3777 37.6021 33.3647 37.6021 32.3263C37.6021 31.2794 37.154 30.2748 36.3001 29.4306L31.6586 24.7789ZM34.6853 33.6686C34.6769 33.6686 34.6769 33.677 34.6853 33.6686C34.3556 34.0231 34.0174 34.344 33.6539 34.6985C33.1043 35.222 32.5463 35.7707 32.0221 36.387C31.1682 37.2988 30.1621 37.7293 28.8432 37.7293C28.7164 37.7293 28.5811 37.7293 28.4543 37.7209C25.9433 37.5605 23.6098 36.5812 21.8597 35.7454C17.0745 33.4322 12.8725 30.1481 9.3808 25.9861C6.4978 22.5163 4.57016 19.3083 3.29352 15.8638C2.50724 13.7617 2.21979 12.1239 2.34661 10.579C2.43115 9.59121 2.81161 8.77231 3.51334 8.0716L6.39634 5.19278C6.81062 4.80444 7.25025 4.59338 7.68144 4.59338C8.21407 4.59338 8.64526 4.91419 8.9158 5.18434C8.92426 5.19278 8.93271 5.20122 8.94117 5.20967C9.45689 5.69088 9.94726 6.18897 10.463 6.72083C10.7251 6.99099 10.9956 7.26114 11.2662 7.53973L13.5743 9.84447C14.4704 10.7394 14.4704 11.5667 13.5743 12.4616C13.3291 12.7064 13.0924 12.9512 12.8472 13.1876C12.137 13.9136 11.4606 14.589 10.7251 15.2475C10.7082 15.2644 10.6913 15.2729 10.6828 15.2897C9.95571 16.0158 10.091 16.7249 10.2432 17.2061C10.2516 17.2315 10.2601 17.2568 10.2685 17.2821C10.8688 18.7342 11.7143 20.1018 12.9994 21.7312L13.0078 21.7396C15.3413 24.61 17.8015 26.8472 20.5155 28.561C20.8621 28.7805 21.2172 28.9578 21.5554 29.1266C21.8597 29.2786 22.1472 29.4221 22.3924 29.5741C22.4262 29.591 22.46 29.6163 22.4938 29.6332C22.7813 29.7767 23.0518 29.8442 23.3308 29.8442C24.0326 29.8442 24.4722 29.4052 24.6159 29.2617L27.5074 26.3744C27.7948 26.0874 28.2514 25.7413 28.784 25.7413C29.3082 25.7413 29.7394 26.0705 30.0015 26.3576C30.0099 26.366 30.0099 26.366 30.0184 26.3744L34.6769 31.0261C35.5477 31.8873 35.5477 32.7737 34.6853 33.6686Z" fill="white"/>
<path d="M21.6484 9.51481C23.8635 9.88627 25.8757 10.9331 27.482 12.5371C29.0884 14.1412 30.1283 16.1504 30.5088 18.3623C30.6018 18.9195 31.0837 19.3078 31.6332 19.3078C31.7009 19.3078 31.76 19.2994 31.8277 19.291C32.4533 19.1897 32.8676 18.5987 32.7661 17.974C32.3096 15.2978 31.0414 12.8579 29.1053 10.9247C27.1692 8.99139 24.7258 7.72505 22.0457 7.26916C21.4201 7.16786 20.8367 7.58153 20.7268 8.19781C20.6169 8.8141 21.0227 9.4135 21.6484 9.51481Z" fill="white"/>
<path d="M40.0117 17.6448C39.2592 13.238 37.1794 9.2279 33.9836 6.03672C30.7878 2.84554 26.7718 0.768738 22.3586 0.0173754C21.7414 -0.0923741 21.158 0.32974 21.0481 0.946026C20.9466 1.57075 21.3609 2.15327 21.9866 2.26302C25.9264 2.92996 29.5196 4.7957 32.3772 7.64075C35.2349 10.4942 37.0949 14.0822 37.7628 18.0163C37.8558 18.5735 38.3377 18.9618 38.8872 18.9618C38.9549 18.9618 39.014 18.9534 39.0817 18.945C39.6989 18.8521 40.1216 18.2611 40.0117 17.6448Z" fill="white"/>
</g>
<defs>
<clipPath id="clip0">
<rect width="40" height="40" fill="white"/>
</clipPath>
</defs>
</svg>
