<svg width="50" height="50" viewBox="0 0 50 50" fill="none" xmlns="http://www.w3.org/2000/svg">
<path d="M42.2258 33.7492C43.6312 32.6016 44.5312 30.8578 44.5312 28.9062C44.5312 25.4602 41.7273 22.6562 38.2812 22.6562C34.8352 22.6562 32.0312 25.4602 32.0312 28.9062C32.0312 30.7734 32.8586 32.4477 34.1609 33.5938H26.5477C26.4961 33.4727 26.4539 33.3508 26.3977 33.2297L27.5641 31.3039L26.7289 30.4688H28.125C29.4172 30.4688 30.4688 29.4172 30.4688 28.125V26.5625C30.4688 25.2703 29.4172 24.2188 28.125 24.2188H26.5625C26.1313 24.2188 25.7812 23.8687 25.7812 23.4375V22.6562H33.5938V18.75C33.5938 15.107 31.3117 11.9945 28.1055 10.7461C29.5312 9.75781 30.4688 8.11172 30.4688 6.25C30.4688 3.23516 28.0148 0.78125 25 0.78125C21.9852 0.78125 19.5312 3.23516 19.5312 6.25C19.5312 8.11172 20.4688 9.75781 21.8945 10.7461C19.8062 11.5594 18.1156 13.1625 17.1875 15.1906C16.2594 13.1625 14.5688 11.5586 12.4805 10.7461C13.9062 9.75781 14.8438 8.11172 14.8438 6.25C14.8438 3.23516 12.3898 0.78125 9.375 0.78125C6.36016 0.78125 3.90625 3.23516 3.90625 6.25C3.90625 8.11172 4.84375 9.75781 6.26953 10.7461C3.06328 11.9945 0.78125 15.107 0.78125 18.75V22.6562H8.59375V23.4375C8.59375 23.8687 8.24375 24.2188 7.8125 24.2188H6.25C4.95781 24.2188 3.90625 25.2703 3.90625 26.5625V28.125C3.90625 29.4172 4.95781 30.4688 6.25 30.4688H7.64609L6.81094 31.3039L7.97656 33.2297C7.85625 33.4883 7.74766 33.7477 7.65156 34.007L5.46875 34.5438V40.4562L7.65156 40.993C7.74766 41.2523 7.85625 41.5117 7.97656 41.7703L6.81094 43.6961L10.9922 47.8773L12.918 46.7117C13.1758 46.832 13.4359 46.9406 13.6953 47.0367L14.2312 49.2188H20.1438L20.6805 47.0359C20.9398 46.9398 21.1992 46.8312 21.4578 46.7109L23.3836 47.8766L27.5648 43.6953L26.3992 41.7695C26.5195 41.5117 26.6281 41.2516 26.7242 40.9922L28.9062 40.4562V39.0625H30.0781C30.7242 39.0625 31.25 39.5883 31.25 40.2344V49.2188H49.2188V42.1875C49.2188 37.9961 46.2008 34.5016 42.2258 33.7492ZM33.5938 28.9062C33.5938 26.3211 35.6961 24.2188 38.2812 24.2188C40.8664 24.2188 42.9688 26.3211 42.9688 28.9062C42.9688 31.4914 40.8664 33.5938 38.2812 33.5938C35.6961 33.5938 33.5938 31.4914 33.5938 28.9062ZM21.0938 6.25C21.0938 4.09609 22.8461 2.34375 25 2.34375C27.1539 2.34375 28.9062 4.09609 28.9062 6.25C28.9062 8.40391 27.1539 10.1562 25 10.1562C22.8461 10.1562 21.0938 8.40391 21.0938 6.25ZM25 11.7188C28.8773 11.7188 32.0312 14.8727 32.0312 18.75V21.0938H29.6875V14.8438H28.125V21.0938H21.875V14.8438H20.3125V21.0938H17.9688V18.75C17.9688 14.8727 21.1227 11.7188 25 11.7188ZM5.46875 6.25C5.46875 4.09609 7.22109 2.34375 9.375 2.34375C11.5289 2.34375 13.2812 4.09609 13.2812 6.25C13.2812 8.40391 11.5289 10.1562 9.375 10.1562C7.22109 10.1562 5.46875 8.40391 5.46875 6.25ZM2.34375 18.75C2.34375 14.8727 5.49766 11.7188 9.375 11.7188C13.2523 11.7188 16.4062 14.8727 16.4062 18.75V21.0938H14.0625V14.8438H12.5V21.0938H6.25V14.8438H4.6875V21.0938H2.34375V18.75ZM6.25 28.9062C5.81875 28.9062 5.46875 28.5562 5.46875 28.125V26.5625C5.46875 26.1313 5.81875 25.7812 6.25 25.7812H7.8125C9.10469 25.7812 10.1562 24.7297 10.1562 23.4375V22.6562H16.4062H17.9688H24.2188V23.4375C24.2188 24.7297 25.2703 25.7812 26.5625 25.7812H28.125C28.5562 25.7812 28.9062 26.1313 28.9062 26.5625V28.125C28.9062 28.5562 28.5562 28.9062 28.125 28.9062H25.1664L23.3836 27.1234L21.4578 28.2891C21.1992 28.1687 20.9398 28.0602 20.6805 27.9641L20.1438 25.7812H14.2312L13.6945 27.9641C13.4352 28.0602 13.1758 28.1687 12.9172 28.2891L10.9914 27.1234L9.20859 28.9062H6.25ZM27.3438 39.2313L25.5117 39.682L25.3789 40.0992C25.2367 40.5469 25.0469 41.0008 24.8141 41.4484L24.6117 41.8375L25.5922 43.4578L23.1445 45.9055L21.5242 44.925L21.1352 45.1273C20.6875 45.3602 20.2336 45.55 19.7875 45.6914L19.3687 45.8234L18.9187 47.6562H15.4563L15.0055 45.8242L14.5883 45.6914C14.1406 45.5492 13.6867 45.3594 13.2391 45.1266L12.85 44.9242L11.2297 45.9047L8.78203 43.457L9.7625 41.8367L9.56016 41.4477C9.32734 41 9.1375 40.5461 8.99609 40.1L8.86406 39.6813L7.03125 39.2313V35.7687L8.86484 35.318L8.99687 34.8992C9.13828 34.4539 9.32812 34 9.56094 33.5516L9.76328 33.1625L8.78281 31.5422L11.2305 29.0945L12.8508 30.075L13.2398 29.8727C13.6875 29.6398 14.1414 29.45 14.5875 29.3086L15.0063 29.1766L15.4563 27.3438H18.9187L19.3695 29.1773L19.7883 29.3094C20.2336 29.4508 20.6875 29.6406 21.1359 29.8734L21.525 30.0758L23.1453 29.0953L25.593 31.543L24.6125 33.1633L24.8148 33.5523C24.8219 33.5664 24.8281 33.5805 24.8352 33.5945H23.0156C21.7164 31.6609 19.5312 30.4688 17.1875 30.4688C13.3102 30.4688 10.1562 33.6227 10.1562 37.5C10.1562 41.3773 13.3102 44.5312 17.1875 44.5312C20.493 44.5312 23.3266 42.2242 24.043 39.0625H27.3438V39.2313ZM19.0539 38.9078C18.6211 39.4805 17.9414 39.8438 17.1875 39.8438C15.8953 39.8438 14.8438 38.7922 14.8438 37.5C14.8438 36.2078 15.8953 35.1562 17.1875 35.1562C17.2742 35.1562 17.3578 35.1797 17.4437 35.1898C17.2828 35.5375 17.1875 35.9203 17.1875 36.3281C17.1875 37.5305 17.9727 38.543 19.0539 38.9078ZM18.6953 33.8977C18.2195 33.6992 17.7062 33.5938 17.1875 33.5938C15.0336 33.5938 13.2812 35.3461 13.2812 37.5C13.2812 39.6539 15.0336 41.4062 17.1875 41.4062C18.7602 41.4062 20.1531 40.4672 20.7664 39.0625H22.4266C21.7484 41.3406 19.6367 42.9688 17.1875 42.9688C14.1727 42.9688 11.7188 40.5148 11.7188 37.5C11.7188 34.4852 14.1727 32.0312 17.1875 32.0312C18.6297 32.0312 19.9977 32.6094 21.0086 33.5938H19.9219C19.4789 33.5938 19.0656 33.7102 18.6953 33.8977ZM47.6562 47.6562H45.3125V39.0625H43.75V47.6562H32.8125V40.2344C32.8125 38.7266 31.5859 37.5 30.0781 37.5H19.9219C19.2758 37.5 18.75 36.9742 18.75 36.3281C18.75 35.682 19.2758 35.1562 19.9219 35.1562H40.625C44.5023 35.1562 47.6562 38.3102 47.6562 42.1875V47.6562Z" fill="black"/>
<path d="M49.2188 15.625C49.2188 12.6102 46.7648 10.1562 43.75 10.1562H40.625C37.6102 10.1562 35.1562 12.6102 35.1562 15.625V21.0938H43.75C46.7648 21.0938 49.2188 18.6398 49.2188 15.625ZM36.7188 15.625C36.7188 13.4711 38.4711 11.7188 40.625 11.7188H43.75C45.9039 11.7188 47.6562 13.4711 47.6562 15.625C47.6562 17.7789 45.9039 19.5312 43.75 19.5312H36.7188V15.625Z" fill="black"/>
<path d="M38.2812 16.4062H39.8438V17.9688H38.2812V16.4062Z" fill="black"/>
<path d="M41.4062 16.4062H42.9688V17.9688H41.4062V16.4062Z" fill="black"/>
<path d="M44.5312 16.4062H46.0938V17.9688H44.5312V16.4062Z" fill="black"/>
<path d="M38.2812 13.2812H46.0938V14.8438H38.2812V13.2812Z" fill="black"/>
</svg>
