<svg width="45" height="42" viewBox="0 0 45 42" fill="none" xmlns="http://www.w3.org/2000/svg">
<path d="M31.1692 24.7531C32.1837 24.7531 33.184 24.7531 34.1816 24.7531C34.1816 30.5025 34.1816 36.2494 34.1816 42C24.3921 42 14.622 42 4.84283 42C4.84283 36.2482 4.84283 30.5073 4.84283 24.7531C5.8418 24.7531 6.84076 24.7531 7.85401 24.7531C7.85401 29.5677 7.85401 34.3774 7.85401 39.2053C15.6249 39.2053 23.3827 39.2053 31.1666 39.2053C31.1692 34.3835 31.1692 29.575 31.1692 24.7531ZM22.589 5.45354C25.9301 10.0268 29.2635 14.5868 32.6007 19.1541C33.6555 18.4812 34.6934 17.8204 35.7366 17.1572C32.3903 12.579 29.0595 8.02269 25.7249 3.45787C24.6753 4.12471 23.6412 4.78306 22.589 5.45354ZM31.985 19.6366C26.8719 16.8226 21.7823 14.0206 16.6823 11.2126C16.0341 12.2371 15.3975 13.2434 14.7519 14.2643C19.8519 17.0711 24.9455 19.8743 30.0572 22.6883C30.7054 21.6614 31.3445 20.6526 31.985 19.6366ZM37.1149 0C35.8613 0.203689 34.6337 0.403741 33.3749 0.606218C34.3882 6.06097 35.404 11.4951 36.4147 16.9426C37.6773 16.7389 38.9114 16.5376 40.1559 16.3364C39.1414 10.8756 38.1294 5.4402 37.1149 0ZM29.7441 23.6898C24.0153 22.2494 18.3087 20.82 12.5864 19.3832C12.2565 20.5253 11.9304 21.6565 11.5991 22.8047C17.3266 24.2427 23.0385 25.6733 28.7581 27.1101C29.092 25.9607 29.4168 24.8295 29.7441 23.6898ZM28.1346 32.8619C22.2136 32.8619 16.3095 32.8619 10.3975 32.8619C10.3975 34.0488 10.3975 35.2164 10.3975 36.384C16.3198 36.384 22.224 36.384 28.1346 36.384C28.1346 35.1982 28.1346 34.0282 28.1346 32.8619ZM28.5789 28.3092C22.6721 27.8024 16.7862 27.2931 10.8873 26.7888C10.769 27.9733 10.6521 29.1385 10.5352 30.317C16.442 30.8238 22.3292 31.3306 28.2281 31.8374C28.3463 30.6516 28.4607 29.4865 28.5789 28.3092Z" fill="white"/>
</svg>
