<svg width="50" height="50" viewBox="0 0 50 50" fill="none" xmlns="http://www.w3.org/2000/svg">
<path d="M27.0307 0H20.3673C19.9076 0 19.5347 0.372932 19.5347 0.833006V18.5183L15.5065 4.93594C15.4523 4.75445 15.3384 4.59697 15.1834 4.48856L10.8049 1.44266C10.5963 1.29994 10.3353 1.25809 10.0927 1.32842C9.85013 1.40047 9.6532 1.57887 9.55783 1.81319L7.54805 6.75256C7.47703 6.92788 7.46742 7.12241 7.52163 7.3039L12.2716 23.3218H11.2053C10.7456 23.3218 10.3727 23.6947 10.3727 24.1544V49.1419C10.3727 49.6019 10.7456 49.9749 11.2053 49.9749H36.1927C36.6528 49.9749 37.0257 49.6019 37.0257 49.1419V24.1544C37.0257 23.6947 36.6528 23.3218 36.1927 23.3218H33.8001L39.0197 8.06932L40.5955 8.6083L36.2802 21.2176L37.8588 21.7573L42.4396 8.35991C42.5885 7.92488 42.3566 7.45108 41.9212 7.30218C41.9212 7.30218 41.9212 7.30218 41.9209 7.30218L39.5587 6.49662L39.8287 5.70959C40.3869 3.95644 39.4184 2.08252 37.6653 1.52398C35.967 0.982934 34.1435 1.87461 33.5277 3.54748L27.8637 20.0875V0.833006C27.8637 0.372932 27.4908 0 27.0307 0V0ZM26.198 1.66567V3.33168H24.532V4.99735H26.198V6.66336H22.8664V8.32903H26.198V9.9947H24.532V11.6607H26.198V13.3264H22.8664V14.9924H26.198V16.6581H24.532V18.3241H26.198V19.9897H22.8664V21.6554H26.198V23.3214H21.2004V1.66567H26.198ZM19.2221 23.3218H17.4841L12.5488 6.68155L14.1466 6.20775L19.2221 23.3218ZM10.7058 3.40579L12.8061 4.86664L9.74446 5.77546L10.7058 3.40579ZM9.35232 7.6288L10.9555 7.15466L15.7474 23.3218H14.009L9.35232 7.6288ZM35.3601 48.3092H12.0383V24.9874H35.3601V48.3092ZM28.5183 23.3218L29.7068 19.8484L32.8611 20.9264L32.039 23.3218H28.5183ZM33.3983 19.3502L30.2457 18.2716L34.2914 6.45168L37.4423 7.52965L33.3983 19.3502ZM37.2148 3.05001C38.0845 3.34781 38.5487 4.29403 38.2519 5.16409L37.9819 5.95284L34.8304 4.87487L35.1 4.08715C35.3978 3.21675 36.3444 2.75256 37.2148 3.05001Z" fill="black"/>
</svg>
