<svg width="40" height="40" viewBox="0 0 40 40" fill="none" xmlns="http://www.w3.org/2000/svg">
<path d="M38.7537 26.9648C39.5806 24.7388 40 22.3955 40 20C40 14.6578 37.9197 9.63539 34.1421 5.85789C30.3646 2.08031 25.3422 0 20 0C14.6578 0 9.63539 2.08031 5.85789 5.85789C2.08031 9.63539 0 14.6578 0 20C0 25.3422 2.08031 30.3646 5.85789 34.1422C9.63539 37.9196 14.6578 40 20 40C22.3708 40 24.6912 39.5891 26.8971 38.7787C26.9366 38.7641 26.9736 38.746 27.0092 38.7261C28.3104 39.5332 29.8438 40 31.4844 40C36.1799 40 40 36.1799 40 31.4844C40 29.8472 39.5352 28.3167 38.7312 27.0172C38.739 27 38.747 26.9829 38.7537 26.9648ZM20 38.4375C9.83352 38.4375 1.5625 30.1665 1.5625 20C1.5625 9.83352 9.83352 1.5625 20 1.5625C30.1665 1.5625 38.4375 9.83352 38.4375 20C38.4375 21.8994 38.151 23.7623 37.5866 25.5513C37.0847 25.0353 36.5186 24.5822 35.9006 24.2059C37.3934 18.549 35.7798 12.5227 31.6286 8.37148C28.9337 5.67656 25.3638 3.99273 21.5763 3.63008C17.8395 3.27211 14.0664 4.20773 10.9514 6.26422C10.5913 6.50187 10.4921 6.98656 10.7298 7.34656C10.9675 7.70664 11.4522 7.80586 11.8122 7.56813C17.677 3.69648 25.5462 4.49891 30.5236 9.47633C34.2073 13.1599 35.6812 18.475 34.4638 23.5072C33.5361 23.1595 32.5321 22.9688 31.4844 22.9688C26.7888 22.9688 22.9688 26.7888 22.9688 31.4844C22.9688 32.5327 23.1597 33.5372 23.5077 34.4655C22.3471 34.7463 21.1716 34.8841 20.004 34.8841C16.1101 34.8839 12.3084 33.3559 9.47625 30.5238C4.49922 25.5468 3.69648 17.6779 7.56734 11.8134C7.805 11.4533 7.70578 10.9686 7.3457 10.731C6.98563 10.4932 6.50094 10.5926 6.26336 10.9527C4.20734 14.0677 3.27211 17.8408 3.63 21.577C3.99281 25.3642 5.67664 28.9339 8.37133 31.6287C11.5013 34.7586 15.7008 36.447 20.0037 36.4466C21.4044 36.4466 22.8166 36.267 24.2056 35.9005C24.582 36.5186 25.0354 37.0849 25.5516 37.5869C23.7625 38.1514 21.8991 38.4375 20 38.4375ZM31.4844 38.4375C27.6504 38.4375 24.5312 35.3184 24.5312 31.4844C24.5312 27.6504 27.6504 24.5312 31.4844 24.5312C35.3184 24.5312 38.4375 27.6504 38.4375 31.4844C38.4375 35.3184 35.3184 38.4375 31.4844 38.4375Z" fill="white"/>
<path d="M8.87578 9.75352C9.07664 9.75352 9.2775 9.67657 9.43015 9.52274L9.44679 9.50602L9.45156 9.50125C9.75703 9.19657 9.75531 8.70422 9.45054 8.39875C9.14586 8.09328 8.64891 8.095 8.34336 8.39969L8.32133 8.4218C8.01734 8.72797 8.01906 9.22266 8.32523 9.52665C8.47773 9.6779 8.6768 9.75352 8.87578 9.75352Z" fill="white"/>
<path d="M31.6309 20.7959H32.7344C33.1659 20.7959 33.5156 20.4461 33.5156 20.0146C33.5156 19.5832 33.1659 19.2334 32.7344 19.2334H31.6309C31.1995 19.2334 30.8497 19.5832 30.8497 20.0146C30.8497 20.4461 31.1995 20.7959 31.6309 20.7959Z" fill="white"/>
<path d="M9.15031 19.9854C9.15031 19.5539 8.80055 19.2041 8.36906 19.2041H7.26562C6.83414 19.2041 6.48438 19.5539 6.48438 19.9854C6.48438 20.4168 6.83414 20.7666 7.26562 20.7666H8.36906C8.80047 20.7666 9.15031 20.4168 9.15031 19.9854Z" fill="white"/>
<path d="M20.0145 9.15031C20.446 9.15031 20.7958 8.80055 20.7958 8.36906V7.26562C20.7958 6.83414 20.446 6.48438 20.0145 6.48438C19.583 6.48438 19.2333 6.83414 19.2333 7.26562V8.36906C19.2333 8.80047 19.583 9.15031 20.0145 9.15031Z" fill="white"/>
<path d="M19.9855 30.8496C19.554 30.8496 19.2042 31.1995 19.2042 31.6309V32.7342C19.2042 33.1656 19.554 33.5155 19.9855 33.5155C20.417 33.5155 20.7667 33.1656 20.7667 32.7342V31.6309C20.7667 31.1994 20.417 30.8496 19.9855 30.8496Z" fill="white"/>
<path d="M17.4234 18.5283C17.1744 18.9625 17.0313 19.4647 17.0313 20.0001C17.0313 21.637 18.3631 22.9688 20 22.9688C21.637 22.9688 22.9688 21.637 22.9688 20.0001C22.9688 19.4647 22.8256 18.9625 22.5766 18.5283L28.7556 12.3494C29.0607 12.0443 29.0607 11.5496 28.7556 11.2444C28.4506 10.9394 27.9559 10.9394 27.6507 11.2444L21.4717 17.4234C21.0376 17.1745 20.5353 17.0313 20 17.0313C19.4647 17.0313 18.9624 17.1745 18.5283 17.4234L15.4352 14.3304C15.1302 14.0253 14.6355 14.0253 14.3303 14.3304C14.0252 14.6354 14.0252 15.1301 14.3303 15.4353L17.4234 18.5283ZM21.4063 20.0001C21.4063 20.7754 20.7754 21.4063 20 21.4063C19.2246 21.4063 18.5938 20.7754 18.5938 20.0001C18.5938 19.2247 19.2246 18.5938 20 18.5938C20.7754 18.5938 21.4063 19.2247 21.4063 20.0001Z" fill="white"/>
<path d="M9.6043 27.9766C9.67789 28.0726 9.75273 28.1676 9.82867 28.2611C11.2037 29.9555 13.0037 31.2908 15.0341 32.1226C15.131 32.1623 15.2312 32.1812 15.3299 32.1812C15.6376 32.1812 15.9293 31.9981 16.0531 31.6958C16.2166 31.2965 16.0255 30.8403 15.6263 30.6767C13.8377 29.944 12.2524 28.7682 11.0419 27.2765C10.9751 27.1941 10.9093 27.1108 10.8446 27.0263C10.5822 26.6839 10.0918 26.6189 9.7493 26.8814C9.40672 27.1437 9.3418 27.6341 9.6043 27.9766Z" fill="white"/>
<path d="M9.3882 24.5294L9.36289 24.4695C9.1957 24.0718 8.73765 23.8847 8.34 24.052C7.94227 24.2192 7.75531 24.6771 7.9225 25.075L7.95047 25.1411C8.07695 25.4384 8.36586 25.6168 8.66969 25.6168C8.77172 25.6168 8.87539 25.5966 8.97523 25.5542C9.37226 25.3853 9.55718 24.9264 9.3882 24.5294Z" fill="white"/>
<path d="M31.4813 28.4007C32.2123 28.4007 32.807 28.9079 32.807 29.5315C32.807 29.9629 33.1567 30.3128 33.5882 30.3128C34.0197 30.3128 34.3695 29.9629 34.3695 29.5315C34.3695 28.2989 33.4766 27.2578 32.2626 26.9392V26.6929C32.2626 26.2615 31.9128 25.9116 31.4813 25.9116C31.0498 25.9116 30.7001 26.2615 30.7001 26.6929V26.9392C29.486 27.2578 28.5932 28.299 28.5932 29.5315C28.5932 31.0167 29.8888 32.225 31.4813 32.225C32.2123 32.225 32.807 32.7322 32.807 33.3558C32.807 33.9794 32.2123 34.4867 31.4813 34.4867C30.7504 34.4867 30.1557 33.9794 30.1557 33.3558C30.1557 32.9244 29.8059 32.5746 29.3745 32.5746C28.943 32.5746 28.5932 32.9244 28.5932 33.3558C28.5932 34.5885 29.4861 35.6296 30.7001 35.9482V36.1365C30.7001 36.5679 31.0498 36.9178 31.4813 36.9178C31.9128 36.9178 32.2626 36.5679 32.2626 36.1365V35.9482C33.4766 35.6296 34.3695 34.5884 34.3695 33.3558C34.3695 31.8707 33.0738 30.6625 31.4813 30.6625C30.7504 30.6625 30.1557 30.1551 30.1557 29.5315C30.1557 28.9079 30.7504 28.4007 31.4813 28.4007Z" fill="white"/>
</svg>
